<svg width="850" height="256" viewBox="0 0 850 256" fill="none" xmlns="http://www.w3.org/2000/svg">
<path d="M527.017 200.207C477.662 236.632 406.106 256 344.489 256C258.133 256 180.367 224.078 121.516 170.937C116.9 166.765 121.016 161.064 126.566 164.292C190.051 201.236 268.582 223.493 349.671 223.493C404.379 223.493 464.514 212.138 519.844 188.663C528.188 185.133 535.191 194.166 527.017 200.207Z" fill="#222222"/>
<path d="M547.557 176.742C541.242 168.662 505.828 172.91 489.914 174.816C485.091 175.402 484.345 171.182 488.687 168.134C516.937 148.284 563.235 154.013 568.615 160.667C574.033 167.36 567.18 213.78 540.714 235.933C536.636 239.34 532.757 237.518 534.569 233.026C540.544 218.15 553.881 184.84 547.557 176.742Z" fill="#222222"/>
<path d="M491.037 27.9575V8.674C491.056 5.73852 493.264 3.78466 495.926 3.7941L582.348 3.78467C585.114 3.78467 587.332 5.78569 587.332 8.64566V25.1825C587.303 27.9575 584.963 31.5726 580.828 37.3209L536.06 101.241C552.672 100.854 570.257 103.345 585.359 111.822C588.766 113.738 589.682 116.569 589.946 119.354V139.93C589.946 142.771 586.841 146.047 583.575 144.338C556.976 130.397 521.685 128.878 492.264 144.508C489.262 146.113 486.119 142.875 486.119 140.034V120.477C486.119 117.353 486.176 111.991 489.338 107.225L541.195 32.8185L496.039 32.8091C493.274 32.8091 491.056 30.8458 491.037 27.9575Z" fill="#222222"/>
<path d="M175.789 148.388H149.492C146.991 148.227 144.99 146.349 144.782 143.942L144.801 8.99495C144.801 6.30488 147.066 4.14341 149.879 4.14341L174.364 4.13397C176.921 4.26612 178.979 6.20106 179.14 8.66459V26.2775H179.64C186.02 9.24037 198.046 1.28345 214.243 1.28345C230.685 1.28345 241.002 9.24037 248.364 26.2775C254.745 9.24037 269.224 1.28345 284.685 1.28345C295.728 1.28345 307.753 5.83295 315.115 16.0552C323.459 27.4196 321.751 43.8809 321.751 58.3695L321.723 143.527C321.723 146.217 319.457 148.378 316.654 148.378H290.395C287.743 148.208 285.676 146.122 285.676 143.536L285.666 71.9992C285.666 66.3264 286.157 52.1304 284.921 46.7314C282.957 37.6324 277.077 35.0744 269.469 35.0744C263.079 35.0744 256.453 39.3314 253.754 46.1462C251.054 52.9705 251.299 64.3254 251.299 71.9897V143.527C251.299 146.217 249.034 148.378 246.231 148.378H219.972C217.329 148.208 215.253 146.122 215.253 143.536L215.224 71.9992C215.224 56.9537 217.688 34.8102 199.037 34.8102C180.14 34.8102 180.876 56.3779 180.876 71.9992L180.857 143.536C180.857 146.226 178.592 148.388 175.789 148.388Z" fill="#222222"/>
<path d="M661.973 28.8451C642.586 28.8451 641.359 55.2456 641.359 71.7163C641.359 88.1871 641.113 123.403 661.737 123.403C682.106 123.403 683.088 95.0114 683.088 77.6911C683.088 66.3362 682.588 52.6971 679.152 41.9085C676.207 32.5358 670.317 28.8451 661.973 28.8451ZM661.737 1.29321C700.757 1.29321 721.862 34.8105 721.862 77.4079C721.862 118.571 698.549 151.229 661.737 151.229C623.444 151.229 602.584 117.721 602.584 75.9827C602.584 33.9516 623.68 1.29321 661.737 1.29321Z" fill="#222222"/>
<path d="M772.465 148.388H746.263C743.639 148.218 741.553 146.132 741.553 143.546L741.506 8.55168C741.732 6.07871 743.913 4.14374 746.556 4.14374L770.946 4.13431C773.249 4.25701 775.136 5.81442 775.618 7.90984V28.5526H776.109C783.48 10.0902 793.778 1.29321 811.938 1.29321C823.718 1.29321 835.262 5.55014 842.624 17.1977C849.496 27.9957 849.496 46.156 849.496 59.2288V144.15C849.212 146.538 847.06 148.397 844.455 148.397H818.102C815.667 148.246 813.704 146.453 813.42 144.15V70.8857C813.42 56.114 815.148 34.5273 796.978 34.5273C790.597 34.5273 784.707 38.7843 781.762 45.3159C778.081 53.556 777.591 61.7867 777.591 70.8857V143.546C777.543 146.226 775.269 148.388 772.465 148.388Z" fill="#222222"/>
<path d="M124.291 123.658C119.486 117.023 114.361 111.624 114.361 99.2965V58.3414C114.361 40.974 115.597 25.0412 102.808 13.0822C92.9536 3.63396 76.7755 0.16046 64.1085 0H62.1641C37.4155 0.254848 10.1845 9.75975 4.40793 40.2472C3.78497 43.5319 6.18243 45.2592 8.33449 45.75L33.8193 48.5156C36.2074 48.3929 37.9347 46.0426 38.3877 43.6735C40.5681 33.0265 49.4878 27.8918 59.5213 27.8918C64.9203 27.8918 71.0744 29.8834 74.2742 34.7255C77.9647 40.1339 77.4645 47.5245 77.4645 53.7919V57.2088C62.2302 58.9078 42.3048 60.0404 28.0428 66.3078C11.5531 73.4153 0 87.9322 0 109.273C0 136.589 17.2164 150.257 39.3505 150.257C58.0488 150.257 68.2616 145.849 82.703 131.143C87.4697 138.062 89.0365 141.413 97.7769 148.671C99.7401 149.719 102.251 149.615 103.988 148.058L104.044 148.114C109.292 143.442 118.835 135.155 124.206 130.652C126.348 128.897 125.961 126.056 124.291 123.658ZM72.5563 111.841C68.3843 119.231 61.7394 123.79 54.3488 123.79C44.2681 123.79 38.3688 116.107 38.3688 104.724C38.3688 82.3255 58.4547 78.2574 77.4739 78.2574V83.9584C77.4739 94.1996 77.7193 102.732 72.5563 111.841Z" fill="#222222"/>
<path d="M468.959 123.658C464.155 117.023 459.03 111.624 459.03 99.2965V58.3414C459.03 40.974 460.266 25.0412 447.477 13.0822C437.622 3.63396 421.444 0.16046 408.777 0H406.824C382.084 0.254848 354.853 9.75975 349.067 40.2472C348.454 43.5319 350.842 45.2592 352.994 45.75L378.488 48.5156C380.867 48.3929 382.585 46.0426 383.047 43.6735C385.246 33.0265 394.147 27.8918 404.181 27.8918C409.589 27.8918 415.734 29.8833 418.933 34.7255C422.624 40.1339 422.133 47.5245 422.133 53.7919V57.2088C406.88 58.9172 386.955 60.0499 372.693 66.3172C356.222 73.4341 344.65 87.9416 344.65 109.283C344.65 136.599 361.866 150.266 384 150.266C402.699 150.266 412.921 145.858 427.353 131.153C432.129 138.071 433.696 141.422 442.427 148.68C444.39 149.728 446.901 149.624 448.628 148.067L448.704 148.124C453.952 143.451 463.485 135.164 468.865 130.662C471.017 128.897 470.649 126.056 468.959 123.658ZM417.225 111.841C413.044 119.231 406.399 123.79 399.018 123.79C388.937 123.79 383.038 116.107 383.038 104.724C383.038 82.3255 403.123 78.2574 422.143 78.2574V83.9584C422.143 94.1995 422.388 102.732 417.225 111.841Z" fill="#222222"/>
</svg>
