<svg width="1112" height="257" viewBox="0 0 1112 257" fill="none" xmlns="http://www.w3.org/2000/svg">
<path d="M71.7852 206.923C61.6557 206.923 52.447 198.635 52.447 188.505C52.447 178.376 60.7348 170.088 71.7852 170.088C82.8355 170.088 91.1233 178.376 91.1233 188.505C91.1233 198.635 81.9147 206.923 71.7852 206.923ZM309.368 106.548C307.526 91.8146 298.318 79.8434 286.346 70.6348L281.742 66.9513L278.059 71.5556C270.692 79.8434 267.929 94.5772 268.85 105.628C269.771 113.915 272.533 122.203 277.138 128.649C273.454 130.491 268.85 132.333 265.166 134.174C256.879 136.937 248.591 137.858 240.303 137.858H1.79955L0.87869 143.383C-0.963037 160.879 1.79955 179.297 9.16646 195.872L12.8499 202.318V203.239C34.9506 240.074 74.5478 256.649 117.828 256.649C200.706 256.649 268.85 220.736 301.08 143.383C322.26 144.304 343.44 138.779 353.569 118.52L356.332 113.915L351.728 111.153C339.756 103.786 323.181 102.865 309.368 106.548ZM190.577 91.8146H154.663V127.728H190.577V91.8146ZM190.577 46.6923H154.663V82.606H190.577V46.6923ZM190.577 0.64917H154.663V36.5628H190.577V0.64917ZM234.778 91.8146H198.864V127.728H234.778V91.8146ZM101.253 91.8146H65.3391V127.728H101.253V91.8146ZM146.375 91.8146H110.461V127.728H146.375V91.8146ZM57.0513 91.8146H21.1377V127.728H57.0513V91.8146ZM146.375 46.6923H110.461V82.606H146.375V46.6923ZM101.253 46.6923H65.3391V82.606H101.253V46.6923Z" fill="#061D2F"/>
<path d="M930.03 184.822C945.685 171.009 961.339 158.117 976.994 144.304C982.519 139.7 988.044 135.095 993.57 129.57C988.965 124.045 982.519 120.362 976.073 117.599C964.102 112.995 952.131 114.836 940.16 121.282C925.426 129.57 918.98 143.383 919.901 159.959C919.901 166.405 921.742 172.851 925.426 178.376C928.188 181.139 929.109 182.98 930.03 184.822ZM948.447 197.714C955.814 200.477 965.023 200.477 973.311 198.635C976.994 196.793 988.044 192.189 991.728 193.11H993.57C996.332 194.031 998.174 195.872 999.095 198.635C1001.86 204.16 1000.94 209.685 995.411 212.448L993.57 213.369C973.311 225.34 952.131 223.498 931.872 212.448C922.663 206.923 915.296 199.556 909.771 190.347L908.85 188.505C895.958 166.405 897.8 142.462 912.534 121.282C917.138 113.915 924.505 108.39 931.872 103.786L934.634 101.944C953.973 90.8939 974.232 91.8148 993.57 101.023C1003.7 106.549 1012.91 113.915 1018.43 124.045L1019.35 125.887C1023.96 133.254 1018.43 139.7 1011.99 144.304L992.649 160.88C976.073 173.772 962.26 185.743 948.447 197.714ZM1098.55 96.4191H1100.39C1106.84 96.4191 1111.44 101.023 1111.44 107.469C1111.44 116.678 1103.15 118.52 1095.79 118.52C1086.58 118.52 1077.37 124.045 1070.92 130.491C1062.63 138.779 1058.95 148.908 1058.95 159.959V211.527C1058.95 217.052 1055.27 222.577 1048.82 222.577H1046.98C1040.53 222.577 1036.85 217.973 1036.85 211.527V157.196C1036.85 136.016 1046.98 119.441 1063.56 107.469C1075.53 100.103 1086.58 96.4191 1098.55 96.4191ZM835.181 132.333L860.045 107.469C862.807 105.628 871.095 95.4982 874.778 95.4982H878.462C883.066 96.4191 886.749 99.1817 886.749 104.707V106.549C886.749 110.232 882.145 113.915 880.303 116.678C875.699 122.203 870.174 126.808 865.57 132.333L839.785 158.117L872.937 191.268L882.145 200.477L885.829 204.16C886.749 206.002 887.67 206.923 887.67 208.764V211.527C886.75 216.131 883.066 219.815 878.462 219.815H876.62C872.937 219.815 869.253 216.131 866.491 213.369C861.886 208.764 856.361 204.16 851.757 198.635L835.181 182.98V208.764C835.181 214.29 831.498 219.815 825.052 219.815H823.21C816.764 219.815 813.08 215.21 813.08 208.764V66.9515C813.08 61.4263 816.764 56.8219 823.21 56.8219H825.052C831.498 56.8219 835.181 61.4263 835.181 66.9515V132.333ZM767.037 118.52C764.275 116.678 757.829 116.678 754.145 116.678C736.649 115.757 723.757 125.887 716.39 141.541C713.627 147.067 712.706 152.592 712.706 159.038C712.706 177.455 721.915 190.347 738.491 197.714C744.016 200.477 752.304 201.397 758.75 201.397C764.275 201.397 772.563 197.714 777.167 195.872H781.771C786.375 196.793 790.059 199.556 790.059 205.081V206.923C790.059 219.815 766.116 222.577 757.829 223.498C726.519 225.34 702.577 207.844 693.368 178.376C691.526 172.851 691.527 168.246 691.527 162.721V158.117C691.527 135.095 702.577 116.678 722.836 105.628C732.045 100.103 742.174 97.3399 753.224 97.3399H757.829C768.879 97.3399 779.929 100.103 789.138 106.549L790.059 107.469L790.98 108.39C791.901 110.232 792.821 112.074 792.821 113.915V115.757C792.821 121.282 789.138 124.045 783.613 124.966H782.692C776.246 123.124 768.879 119.441 767.037 118.52ZM573.656 158.117C573.656 173.772 581.944 185.743 594.836 194.031C601.282 197.714 608.649 199.556 616.016 199.556C631.67 199.556 643.642 191.268 651.929 178.376C655.613 171.93 657.455 164.563 657.455 157.196C657.455 142.462 650.088 130.491 638.116 122.203C631.67 117.599 623.383 115.757 616.016 115.757C598.519 115.757 585.627 124.966 578.26 140.621C573.656 147.067 573.656 152.592 573.656 158.117ZM612.332 95.4982H615.095C639.958 95.4982 658.375 107.469 670.347 128.649C674.951 136.937 677.714 146.146 677.714 156.275V160.88C677.714 183.901 666.663 202.318 646.404 213.369C637.196 218.894 627.066 221.656 616.016 221.656H611.411C588.39 221.656 569.973 210.606 558.922 190.347C553.397 181.139 550.634 171.009 550.634 159.959V155.354C550.634 132.333 561.685 113.915 581.944 102.865C592.073 98.2608 601.282 95.4982 612.332 95.4982ZM433.685 158.117C433.685 174.692 441.973 187.585 456.706 194.951C462.232 197.714 468.678 199.556 476.044 199.556C492.62 199.556 504.591 192.189 512.879 178.376C516.562 171.93 518.404 164.563 518.404 157.196C518.404 142.462 511.958 131.412 499.987 123.124C492.62 118.52 485.253 115.757 476.044 115.757C458.548 115.757 445.656 124.966 438.289 140.621C435.527 147.067 433.685 152.592 433.685 158.117ZM518.404 111.153V66.0306C518.404 60.5054 522.088 54.9802 528.534 54.9802H530.375C536.821 54.9802 540.505 59.5845 540.505 66.0306V160.88C540.505 183.901 529.455 202.318 509.196 213.369C499.987 218.894 489.857 221.656 478.807 221.656H474.203C451.181 221.656 432.764 210.606 421.714 190.347C416.188 181.139 413.426 171.009 413.426 159.959V155.354C413.426 132.333 424.476 113.915 444.735 102.865C453.944 97.3399 464.073 94.5774 475.124 94.5774H479.728C493.541 95.4982 507.354 101.023 518.404 111.153Z" fill="#061D2F"/>
</svg>
