<svg width="2068" height="256" viewBox="0 0 2068 256" fill="none" xmlns="http://www.w3.org/2000/svg">
<path fill-rule="evenodd" clip-rule="evenodd" d="M640.861 107.844H603.649V179.855C603.649 199.15 616.398 198.805 640.861 197.771V227.058C590.901 232.916 571.262 219.134 571.262 180.199V108.189H543.698V76.8347H571.262V36.5225L603.649 26.8751V76.8347H640.861V107.844ZM782.815 76.4902H815.203V226.714H782.815V205.007C771.445 220.856 753.528 230.504 730.099 230.504C689.097 230.504 655.332 196.049 655.332 151.602C655.332 106.811 689.442 72.7002 730.099 72.7002C753.528 72.7002 771.445 82.3475 782.815 97.8522V76.4902ZM735.267 199.839C762.486 199.839 782.815 179.855 782.815 151.602C782.815 123.693 762.486 103.365 735.267 103.365C708.392 103.365 687.719 123.349 687.719 151.602C687.719 179.855 708.392 199.839 735.267 199.839ZM869.297 54.0945C857.927 54.0945 848.624 44.4472 848.624 33.4216C848.624 22.0515 857.927 12.7486 869.297 12.7486C880.667 12.7486 889.97 22.0515 889.97 33.4216C890.314 44.4472 880.667 54.0945 869.297 54.0945ZM853.103 226.714V76.4902H885.491V226.714H853.103ZM923.046 226.714V7.23584H955.434V226.714H923.046ZM1166.3 76.4902H1200.41L1153.21 226.714H1121.51L1090.15 125.416L1058.45 226.714H1026.76L979.552 76.4902H1013.66L1042.95 180.199L1074.65 76.4902H1105.66L1137.01 180.199L1166.3 76.4902ZM1241.07 54.0945C1229.7 54.0945 1220.39 44.4472 1220.39 33.4216C1220.39 22.0515 1229.7 12.7486 1241.07 12.7486C1252.44 12.7486 1261.74 22.0515 1261.74 33.4216C1261.74 44.4472 1252.44 54.0945 1241.07 54.0945ZM1224.53 226.714V76.4902H1256.91V226.714H1224.53ZM1373.72 72.7002C1407.48 72.7002 1431.6 95.4404 1431.6 134.719V227.058H1399.21V137.82C1399.21 115.08 1386.12 103.02 1365.45 103.02C1344.09 103.02 1327.2 115.769 1327.2 146.434V227.058H1294.81V76.8347H1327.2V96.1295C1337.19 80.2802 1353.39 72.7002 1373.72 72.7002ZM1585.27 16.5386H1617.66V227.058H1585.27V205.352C1573.9 221.201 1555.98 230.848 1532.55 230.848C1491.55 230.848 1457.79 196.393 1457.79 151.946C1457.79 107.155 1491.9 73.0448 1532.55 73.0448C1555.98 73.0448 1573.9 82.6921 1585.27 98.1968V16.5386ZM1538.07 199.839C1565.29 199.839 1585.61 179.855 1585.61 151.602C1585.61 123.693 1565.29 103.365 1538.07 103.365C1511.19 103.365 1490.52 123.349 1490.52 151.602C1490.52 179.855 1510.85 199.839 1538.07 199.839ZM1726.54 230.848C1681.05 230.848 1647.29 196.393 1647.29 151.946C1647.29 107.155 1681.4 73.0448 1726.54 73.0448C1756.17 73.0448 1781.66 88.2049 1793.72 111.979L1765.81 128.173C1759.27 114.046 1744.45 105.088 1726.54 105.088C1700 105.088 1680.02 125.072 1680.02 152.291C1680.02 179.51 1700 199.494 1726.54 199.494C1744.45 199.494 1759.27 190.191 1766.5 176.41L1794.41 192.259C1781.66 215.343 1756.17 230.848 1726.54 230.848ZM1847.82 118.181C1847.82 145.4 1928.79 128.862 1928.79 184.679C1928.79 214.654 1902.6 230.848 1870.21 230.848C1840.24 230.848 1818.53 217.411 1808.88 195.704L1836.79 179.51C1841.61 192.948 1853.67 201.217 1870.21 201.217C1884.68 201.217 1895.71 196.393 1895.71 184.334C1895.71 157.459 1814.74 172.619 1814.74 118.87C1814.74 90.6167 1839.2 73.0448 1869.87 73.0448C1894.68 73.0448 1915 84.4148 1925.34 104.399L1898.12 119.559C1892.61 107.844 1882.27 102.331 1869.87 102.331C1858.15 101.987 1847.82 107.155 1847.82 118.181ZM1986.33 118.181C1986.33 145.4 2067.29 128.862 2067.29 184.679C2067.29 214.654 2041.11 230.848 2008.72 230.848C1978.75 230.848 1957.04 217.411 1947.39 195.704L1975.3 179.51C1980.12 192.948 1992.18 201.217 2008.72 201.217C2023.19 201.217 2034.22 196.393 2034.22 184.334C2034.22 157.459 1953.25 172.619 1953.25 118.87C1953.25 90.6167 1977.71 73.0448 2008.38 73.0448C2033.18 73.0448 2053.51 84.4148 2063.85 104.399L2036.63 119.559C2031.12 107.844 2020.78 102.331 2008.38 102.331C1996.66 101.987 1986.33 107.155 1986.33 118.181Z" fill="black"/>
<path fill-rule="evenodd" clip-rule="evenodd" d="M213.62 0C156.77 0 120.937 28.5975 106.81 85.4482C128.172 56.8506 152.98 46.1696 181.577 53.4051C197.771 57.5397 209.486 69.2544 222.234 82.3472C243.252 103.709 267.37 128.172 320.431 128.172C377.281 128.172 413.114 99.5747 427.241 42.7241C405.879 71.3217 381.071 82.0027 352.474 74.7672C336.28 70.6326 324.565 58.9179 311.817 45.825C290.799 24.463 266.681 0 213.62 0ZM106.81 127.828C49.9596 127.828 14.1265 156.425 0 213.276C21.362 184.678 46.1696 173.997 74.7672 181.233C90.961 185.367 102.676 197.082 115.424 210.175C136.441 231.537 160.56 256 213.62 256C270.471 256 306.304 227.402 320.431 170.552C299.069 199.149 274.261 209.83 245.664 202.595C229.47 198.46 217.755 186.746 205.007 173.653C183.989 152.635 159.871 127.828 106.81 127.828Z" fill="#727272"/>
</svg>
